<svg xmlns="http://www.w3.org/2000/svg" xmlns:xlink="http://www.w3.org/1999/xlink" contentStyleType="text/css" height="349px" preserveAspectRatio="none" style="width:693px;height:349px;background:#FFFFFF;" version="1.1" viewBox="0 0 693 349" width="693px" zoomAndPan="magnify"><defs/><g><!--class Ayuntamiento--><g id="elem_Ayuntamiento"><rect codeLine="4" fill="#F1F1F1" height="26.2969" id="Ayuntamiento" rx="2.5" ry="2.5" style="stroke:#181818;stroke-width:0.5;" width="104.7451" x="135.84" y="7"/><text fill="#000000" font-family="sans-serif" font-size="14" lengthAdjust="spacing" textLength="98.7451" x="138.84" y="24.9951">Ayuntamiento</text></g><!--class Incidencias--><g id="elem_Incidencias"><rect codeLine="6" fill="#F1F1F1" height="26.2969" id="Incidencias" rx="2.5" ry="2.5" style="stroke:#181818;stroke-width:0.5;" width="84.4219" x="7" y="110.3"/><text fill="#000000" font-family="sans-serif" font-size="14" lengthAdjust="spacing" textLength="78.4219" x="10" y="128.2951">Incidencias</text></g><!--class Abono--><g id="elem_Abono"><rect codeLine="8" fill="#F1F1F1" height="26.2969" id="Abono" rx="2.5" ry="2.5" style="stroke:#181818;stroke-width:0.5;" width="50.4678" x="310.98" y="110.3"/><text fill="#000000" font-family="sans-serif" font-size="14" lengthAdjust="spacing" textLength="44.4678" x="313.98" y="128.2951">Abono</text></g><!--class Tarifa--><g id="elem_Tarifa"><rect codeLine="10" fill="#F1F1F1" height="26.2969" id="Tarifa" rx="2.5" ry="2.5" style="stroke:#181818;stroke-width:0.5;" width="46.2842" x="304.07" y="213.6"/><text fill="#000000" font-family="sans-serif" font-size="14" lengthAdjust="spacing" textLength="40.2842" x="307.07" y="231.5951">Tarifa</text></g><!--class Transporte--><g id="elem_Transporte"><rect codeLine="12" fill="#F1F1F1" height="26.2969" id="Transporte" rx="2.5" ry="2.5" style="stroke:#181818;stroke-width:0.5;" width="82.3643" x="452.03" y="110.3"/><text fill="#000000" font-family="sans-serif" font-size="14" lengthAdjust="spacing" textLength="76.3643" x="455.03" y="128.2951">Transporte</text></g><!--class Ruta--><g id="elem_Ruta"><rect codeLine="14" fill="#F1F1F1" height="26.2969" id="Ruta" rx="2.5" ry="2.5" style="stroke:#181818;stroke-width:0.5;" width="38.6689" x="450.88" y="213.6"/><text fill="#000000" font-family="sans-serif" font-size="14" lengthAdjust="spacing" textLength="32.6689" x="453.88" y="231.5951">Ruta</text></g><!--class Parada--><g id="elem_Parada"><rect codeLine="16" fill="#F1F1F1" height="26.2969" id="Parada" rx="2.5" ry="2.5" style="stroke:#181818;stroke-width:0.5;" width="54.8223" x="605.8" y="213.6"/><text fill="#000000" font-family="sans-serif" font-size="14" lengthAdjust="spacing" textLength="48.8223" x="608.8" y="231.5951">Parada</text></g><!--class Persona--><g id="elem_Persona"><rect codeLine="18" fill="#F1F1F1" height="26.2969" id="Persona" rx="2.5" ry="2.5" style="stroke:#181818;stroke-width:0.5;" width="62.123" x="511.15" y="7"/><text fill="#000000" font-family="sans-serif" font-size="14" lengthAdjust="spacing" textLength="56.123" x="514.15" y="24.9951">Persona</text></g><!--class Horario--><g id="elem_Horario"><rect codeLine="20" fill="#F1F1F1" height="26.2969" id="Horario" rx="2.5" ry="2.5" style="stroke:#181818;stroke-width:0.5;" width="57.6387" x="144.39" y="316.89"/><text fill="#000000" font-family="sans-serif" font-size="14" lengthAdjust="spacing" textLength="51.6387" x="147.39" y="334.8851">Horario</text></g><!--class Conductor--><g id="elem_Conductor"><rect codeLine="22" fill="#F1F1F1" height="26.2969" id="Conductor" rx="2.5" ry="2.5" style="stroke:#181818;stroke-width:0.5;" width="78.4814" x="607.97" y="7"/><text fill="#000000" font-family="sans-serif" font-size="14" lengthAdjust="spacing" textLength="72.4814" x="610.97" y="24.9951">Conductor</text></g><!--class Pasajero--><g id="elem_Pasajero"><rect codeLine="24" fill="#F1F1F1" height="26.2969" id="Pasajero" rx="2.5" ry="2.5" style="stroke:#181818;stroke-width:0.5;" width="65.7188" x="410.35" y="7"/><text fill="#000000" font-family="sans-serif" font-size="14" lengthAdjust="spacing" textLength="59.7188" x="413.35" y="24.9951">Pasajero</text></g><!--link Ayuntamiento to Abono--><g id="link_Ayuntamiento_Abono"><path codeLine="27" d="M207.29,33.79 C219.82,42.11 236.54,53.29 251.21,63.3 C274.53,79.21 296.2984,94.4038 313.4584,106.4438 " fill="none" id="Ayuntamiento-to-Abono" style="stroke:#181818;stroke-width:1.0;"/><polygon fill="#181818" points="318.37,109.89,313.3,101.4464,314.277,107.0182,308.7051,107.9952,318.37,109.89" style="stroke:#181818;stroke-width:1.0;"/><text fill="#000000" font-family="sans-serif" font-size="13" lengthAdjust="spacing" textLength="52.8379" x="276.21" y="76.3669">Dispone</text></g><!--link Ayuntamiento to Incidencias--><g id="link_Ayuntamiento_Incidencias"><path codeLine="28" d="M135.54,22.01 C104.2,25.58 66.67,35.89 46.21,63.3 C36.13,76.81 38.3296,91.5857 42.5596,104.5557 " fill="none" id="Ayuntamiento-to-Incidencias" style="stroke:#181818;stroke-width:1.0;"/><polygon fill="#181818" points="44.42,110.26,45.4323,100.4633,42.8697,105.5064,37.8266,102.9438,44.42,110.26" style="stroke:#181818;stroke-width:1.0;"/><text fill="#000000" font-family="sans-serif" font-size="13" lengthAdjust="spacing" textLength="70.4526" x="47.21" y="76.3669">Administra</text></g><!--link Ayuntamiento to Horario--><g id="link_Ayuntamiento_Horario"><path codeLine="29" d="M187.6,33.6 C185.19,83.22 176.5518,260.5471 174.1218,310.4471 " fill="none" id="Ayuntamiento-to-Horario" style="stroke:#181818;stroke-width:1.0;"/><polygon fill="#181818" points="173.83,316.44,178.263,307.6452,174.0732,311.4459,170.2725,307.2561,173.83,316.44" style="stroke:#181818;stroke-width:1.0;"/><text fill="#000000" font-family="sans-serif" font-size="13" lengthAdjust="spacing" textLength="42.4341" x="182.21" y="179.6669">Define</text></g><!--link Ayuntamiento to Tarifa--><g id="link_Ayuntamiento_Tarifa"><path codeLine="30" d="M193.57,33.48 C203.25,55.19 224.93,101.3 249.21,136.6 C269.49,166.08 294.0171,192.3978 310.3571,208.9678 " fill="none" id="Ayuntamiento-to-Tarifa" style="stroke:#181818;stroke-width:1.0;"/><polygon fill="#181818" points="314.57,213.24,311.0988,204.0231,311.0593,209.6798,305.4025,209.6403,314.57,213.24" style="stroke:#181818;stroke-width:1.0;"/><text fill="#000000" font-family="sans-serif" font-size="13" lengthAdjust="spacing" textLength="42.4341" x="250.21" y="128.0169">Define</text></g><!--link Transporte to Tarifa--><g id="link_Transporte_Tarifa"><path codeLine="31" d="M472.52,137.07 C440.63,156.54 384.9222,190.5353 353.0222,209.9953 " fill="none" id="Transporte-to-Tarifa" style="stroke:#181818;stroke-width:1.0;"/><polygon fill="#181818" points="347.9,213.12,357.6663,211.8478,352.1685,210.5161,353.5001,205.0182,347.9,213.12" style="stroke:#181818;stroke-width:1.0;"/><text fill="#000000" font-family="sans-serif" font-size="13" lengthAdjust="spacing" textLength="35.7881" x="421.21" y="179.6669">Tiene</text></g><!--link Transporte to Ruta--><g id="link_Transporte_Ruta"><path codeLine="32" d="M490.39,136.87 C485.98,156.31 478.8092,187.8691 474.3792,207.3691 " fill="none" id="Transporte-to-Ruta" style="stroke:#181818;stroke-width:1.0;"/><polygon fill="#181818" points="473.05,213.22,478.9444,205.3298,474.1577,208.3442,471.1432,203.5575,473.05,213.22" style="stroke:#181818;stroke-width:1.0;"/><text fill="#000000" font-family="sans-serif" font-size="13" lengthAdjust="spacing" textLength="65.6602" x="483.21" y="179.6669">Pertenece</text></g><!--link Transporte to Persona--><g id="link_Transporte_Persona"><path codeLine="33" d="M486.13,110 C480.06,97.54 473.42,78.15 481.21,63.3 C488.03,50.3 495.6434,43.4667 507.7934,36.6167 " fill="none" id="Transporte-to-Persona" style="stroke:#181818;stroke-width:1.0;"/><polygon fill="#181818" points="513.02,33.67,503.2157,34.6056,508.6645,36.1256,507.1446,41.5744,513.02,33.67" style="stroke:#181818;stroke-width:1.0;"/><text fill="#000000" font-family="sans-serif" font-size="13" lengthAdjust="spacing" textLength="74.3057" x="482.21" y="76.3669">Lo conduce</text></g><!--link Persona to Transporte--><g id="link_Persona_Transporte"><path codeLine="38" d="M551.76,33.5 C560.08,45.89 569.6,65.22 561.21,80.3 C553.85,93.53 545.7675,100.3893 532.7775,107.0593 " fill="none" id="Persona-to-Transporte" style="stroke:#181818;stroke-width:1.0;"/><polygon fill="#181818" points="527.44,109.8,537.2733,109.2473,531.8879,107.5161,533.6191,102.1307,527.44,109.8" style="stroke:#181818;stroke-width:1.0;"/><text fill="#000000" font-family="sans-serif" font-size="13" lengthAdjust="spacing" textLength="56.9067" x="565.21" y="76.3669">Conduce</text></g><!--link Transporte to Parada--><g id="link_Transporte_Parada"><path codeLine="34" d="M513.09,136.97 C525.86,145.15 542.72,156.21 557.21,166.6 C578.68,181.99 597.9289,197.1442 613.0989,209.3742 " fill="none" id="Transporte-to-Parada" style="stroke:#181818;stroke-width:1.0;stroke-dasharray:7.0,7.0;"/><polygon fill="#181818" points="617.77,213.14,613.2739,204.3773,613.8774,210.0018,608.2529,210.6054,617.77,213.14" style="stroke:#181818;stroke-width:1.0;"/><text fill="#000000" font-family="sans-serif" font-size="13" lengthAdjust="spacing" textLength="35.0708" x="579.21" y="179.6669">Llega</text></g><!--link Ruta to Parada--><g id="link_Ruta_Parada"><path codeLine="35" d="M489.87,226.74 C518.75,226.74 566.74,226.74 599.59,226.74 " fill="none" id="Ruta-to-Parada" style="stroke:#181818;stroke-width:1.0;"/><polygon fill="#181818" points="605.59,226.74,596.59,222.74,600.59,226.74,596.59,230.74,605.59,226.74" style="stroke:#181818;stroke-width:1.0;"/><text fill="#000000" font-family="sans-serif" font-size="13" lengthAdjust="spacing" textLength="80.5898" x="507.67" y="219.8069">Se compone</text></g><!--link Parada to Horario--><g id="link_Parada_Horario"><path codeLine="36" d="M605.47,233.85 C523.99,251.8 291.7097,302.9499 208.3197,321.3099 " fill="none" id="Parada-to-Horario" style="stroke:#181818;stroke-width:1.0;"/><polygon fill="#181818" points="202.46,322.6,212.1096,324.5713,207.343,321.5249,210.3894,316.7584,202.46,322.6" style="stroke:#181818;stroke-width:1.0;"/><text fill="#000000" font-family="sans-serif" font-size="13" lengthAdjust="spacing" textLength="35.7881" x="432.21" y="282.9569">Tiene</text></g><!--link Persona to Abono--><g id="link_Persona_Abono"><path codeLine="37" d="M510.72,29.67 C477.27,38.97 426.86,53.8 409.21,63.3 C385.66,75.98 366.6374,92.5235 352.9074,105.7735 " fill="none" id="Persona-to-Abono" style="stroke:#181818;stroke-width:1.0;"/><polygon fill="#181818" points="348.59,109.94,357.8438,106.5685,352.1879,106.4679,352.2885,100.812,348.59,109.94" style="stroke:#181818;stroke-width:1.0;"/><text fill="#000000" font-family="sans-serif" font-size="13" lengthAdjust="spacing" textLength="58.5889" x="410.21" y="76.3669">Adquiere</text></g><!--link Persona to Parada--><g id="link_Persona_Parada"><path codeLine="39" d="M573.75,32.22 C596.22,40.82 623.57,52.97 630.21,63.3 C661.02,111.23 646.7019,178.8834 638.6019,207.7334 " fill="none" id="Persona-to-Parada" style="stroke:#181818;stroke-width:1.0;stroke-dasharray:7.0,7.0;"/><polygon fill="#181818" points="636.98,213.51,643.2639,205.9263,638.3316,208.6961,635.5617,203.7638,636.98,213.51" style="stroke:#181818;stroke-width:1.0;"/><text fill="#000000" font-family="sans-serif" font-size="13" lengthAdjust="spacing" textLength="35.0708" x="649.21" y="128.0169">Llega</text></g><!--link Pasajero to Persona--><g id="link_Pasajero_Persona"><path codeLine="40" d="M476.47,20.15 C487.94,20.15 481.41,20.15 492.88,20.15 " fill="none" id="Pasajero-to-Persona" style="stroke:#181818;stroke-width:1.0;"/><polygon fill="none" points="510.88,20.15,492.88,14.15,492.88,26.15,510.88,20.15" style="stroke:#181818;stroke-width:1.0;"/></g><!--reverse link Persona to Conductor--><g id="link_Persona_Conductor"><path codeLine="41" d="M591.38,20.15 C602.82,20.15 596.26,20.15 607.7,20.15 " fill="none" id="Persona-backto-Conductor" style="stroke:#181818;stroke-width:1.0;"/><polygon fill="none" points="573.38,20.15,591.38,26.15,591.38,14.15,573.38,20.15" style="stroke:#181818;stroke-width:1.0;"/></g><!--link Abono to Tarifa--><g id="link_Abono_Tarifa"><path codeLine="42" d="M331.72,136.79 C328.94,145.09 325.64,156.35 324.21,166.6 C321.97,182.69 322.8321,195.5033 324.4421,207.5033 " fill="none" id="Abono-to-Tarifa" style="stroke:#181818;stroke-width:1.0;stroke-dasharray:7.0,7.0;"/><polygon fill="#181818" points="325.24,213.45,328.0077,203.998,324.5751,208.4944,320.0787,205.0618,325.24,213.45" style="stroke:#181818;stroke-width:1.0;"/><text fill="#000000" font-family="sans-serif" font-size="13" lengthAdjust="spacing" textLength="47.1758" x="325.21" y="179.6669">Liquida</text></g><!--SRC=[RL51RiCW4Bpp2ZxWF227I5PpIAKSgZOVsC2ceJAGBlWGgO_lOcF0SYv8kpFCpixUZKQ9zX6VqgAz8WLnJorbI0qeX1eW1Da_HnV16dJHBxrtfvZ83uH2ktfNy0kGkK6f25nuU8f5ytEC1Vq00bqhTk5TAK-UMAheldcdHnKzrSy1Vf2O85gVikiEioEvbqV3mnrk2SqMJEkrDSw4IB1bPXj936_cbTQySINKdTVmXRziq1G7OxnxP5Hjy1mAKyvUgYc35MUtE-GO4sN0Rn2JP4TT0tpnPRsTeiYzzMgpjMLMcs2lVqU3j0QR-Vjyc4fuuMWvLNBrLtOIvQIo6zh-F3lfbEpEXcre-0S0]--></g></svg>