<svg xmlns="http://www.w3.org/2000/svg" xmlns:xlink="http://www.w3.org/1999/xlink" contentStyleType="text/css" height="607px" preserveAspectRatio="none" style="width:519px;height:607px;background:#FFFFFF;" version="1.1" viewBox="0 0 519 607" width="519px" zoomAndPan="magnify"><defs/><g><ellipse cx="213.51" cy="16" fill="#222222" rx="10" ry="10" style="stroke:#222222;stroke-width:1;"/><g id="En_reposo"><rect fill="#F1F1F1" height="50" rx="12.5" ry="12.5" style="stroke:#181818;stroke-width:0.5;" width="92.3994" x="167.31" y="87"/><line style="stroke:#181818;stroke-width:0.5;" x1="167.31" x2="259.7094" y1="113.2969" y2="113.2969"/><text fill="#000000" font-family="sans-serif" font-size="14" lengthAdjust="spacing" textLength="72.3994" x="177.31" y="104.9951">En_reposo</text></g><g id="En_ruta"><rect fill="#F1F1F1" height="50" rx="12.5" ry="12.5" style="stroke:#181818;stroke-width:0.5;" width="73.416" x="40.8" y="214"/><line style="stroke:#181818;stroke-width:0.5;" x1="40.8" x2="114.216" y1="240.2969" y2="240.2969"/><text fill="#000000" font-family="sans-serif" font-size="14" lengthAdjust="spacing" textLength="53.416" x="50.8" y="231.9951">En_ruta</text></g><g id="En_mantenimiento"><rect fill="#F1F1F1" height="50" rx="12.5" ry="12.5" style="stroke:#181818;stroke-width:0.5;" width="151.7422" x="145.63" y="341"/><line style="stroke:#181818;stroke-width:0.5;" x1="145.63" x2="297.3722" y1="367.2969" y2="367.2969"/><text fill="#000000" font-family="sans-serif" font-size="14" lengthAdjust="spacing" textLength="131.7422" x="155.63" y="358.9951">En_mantenimiento</text></g><g id="Retirado"><rect fill="#F1F1F1" height="50" rx="12.5" ry="12.5" style="stroke:#181818;stroke-width:0.5;" width="79.5068" x="181.75" y="468"/><line style="stroke:#181818;stroke-width:0.5;" x1="181.75" x2="261.2568" y1="494.2969" y2="494.2969"/><text fill="#000000" font-family="sans-serif" font-size="14" lengthAdjust="spacing" textLength="59.5068" x="191.75" y="485.9951">Retirado</text></g><ellipse cx="221.51" cy="590" fill="none" rx="11" ry="11" style="stroke:#222222;stroke-width:1;"/><ellipse cx="221.51" cy="590" fill="#222222" rx="6" ry="6" style="stroke:#222222;stroke-width:1;"/><!--link *start* to En_reposo--><g id="link_*start*_En_reposo"><path d="M213.51,26.36 C213.51,40.29 213.51,60.95 213.51,80.65 " fill="none" id="*start*-to-En_reposo" style="stroke:#181818;stroke-width:1;"/><polygon fill="#181818" points="213.51,86.65,217.51,77.65,213.51,81.65,209.51,77.65,213.51,86.65" style="stroke:#181818;stroke-width:1;"/></g><!--link En_reposo to En_ruta--><g id="link_En_reposo_En_ruta"><path d="M167.04,119.59 C137.83,126.33 102.08,139.87 82.51,167 C72.89,180.33 71.3904,192.9925 72.6804,207.8325 " fill="none" id="En_reposo-to-En_ruta" style="stroke:#181818;stroke-width:1;"/><polygon fill="#181818" points="73.2,213.81,76.4056,204.4974,72.767,208.8288,68.4356,205.1902,73.2,213.81" style="stroke:#181818;stroke-width:1;"/><text fill="#000000" font-family="sans-serif" font-size="13" lengthAdjust="spacing" textLength="103.0098" x="83.51" y="180.0669">Inicia operaci&#243;n</text></g><!--link En_ruta to En_mantenimiento--><g id="link_En_ruta_En_mantenimiento"><path d="M69.52,264.44 C66.27,279.19 65.18,297.65 74.51,311 C83.49,323.88 108.5554,334.3554 139.6554,343.9254 " fill="none" id="En_ruta-to-En_mantenimiento" style="stroke:#181818;stroke-width:1;"/><polygon fill="#181818" points="145.39,345.69,137.9645,339.2199,140.6111,344.2195,135.6116,346.8661,145.39,345.69" style="stroke:#181818;stroke-width:1;"/><text fill="#000000" font-family="sans-serif" font-size="13" lengthAdjust="spacing" textLength="111.4141" x="75.51" y="307.0669">Aver&#237;a detectada</text></g><!--link En_mantenimiento to En_reposo--><g id="link_En_mantenimiento_En_reposo"><path d="M220.73,340.54 C219.2,292.25 215.991,191.207 214.461,143.157 " fill="none" id="En_mantenimiento-to-En_reposo" style="stroke:#181818;stroke-width:1;"/><polygon fill="#181818" points="214.27,137.16,210.5585,146.2827,214.4291,142.1575,218.5544,146.0281,214.27,137.16" style="stroke:#181818;stroke-width:1;"/><text fill="#000000" font-family="sans-serif" font-size="13" lengthAdjust="spacing" textLength="178.9595" x="218.51" y="243.5669">Mantenimiento completado</text></g><!--link En_reposo to Retirado--><g id="link_En_reposo_Retirado"><path d="M259.82,122.84 C305.88,135.36 374.06,161.93 405.51,214 C448.52,285.22 378.45,384.46 327.51,438 C309.5,456.93 288.9705,468.1108 267.1805,476.8308 " fill="none" id="En_reposo-to-Retirado" style="stroke:#181818;stroke-width:1;"/><polygon fill="#181818" points="261.61,479.06,271.4519,479.4298,266.2521,477.2023,268.4796,472.0025,261.61,479.06" style="stroke:#181818;stroke-width:1;"/><text fill="#000000" font-family="sans-serif" font-size="13" lengthAdjust="spacing" textLength="96.0591" x="415.51" y="307.0669">Fin de vida &#250;til</text></g><!--link En_ruta to Retirado--><g id="link_En_ruta_Retirado"><path d="M58.16,264.5 C36.08,295.66 6,350.31 30.51,391 C63.22,445.3 130.1717,470.4155 175.8417,482.2455 " fill="none" id="En_ruta-to-Retirado" style="stroke:#181818;stroke-width:1;"/><polygon fill="#181818" points="181.65,483.75,173.9406,477.621,176.8097,482.4962,171.9345,485.3654,181.65,483.75" style="stroke:#181818;stroke-width:1;"/><text fill="#000000" font-family="sans-serif" font-size="13" lengthAdjust="spacing" textLength="96.0591" x="31.51" y="370.5669">Fin de vida &#250;til</text></g><!--link En_mantenimiento to Retirado--><g id="link_En_mantenimiento_Retirado"><path d="M221.51,391.4 C221.51,413.42 221.51,439.66 221.51,461.66 " fill="none" id="En_mantenimiento-to-Retirado" style="stroke:#181818;stroke-width:1;"/><polygon fill="#181818" points="221.51,467.66,225.51,458.66,221.51,462.66,217.51,458.66,221.51,467.66" style="stroke:#181818;stroke-width:1;"/><text fill="#000000" font-family="sans-serif" font-size="13" lengthAdjust="spacing" textLength="96.0591" x="222.51" y="434.0669">Fin de vida &#250;til</text></g><!--link Retirado to *end*--><g id="link_Retirado_*end*"><path d="M221.51,518.46 C221.51,538.04 221.51,558.49 221.51,572.8 " fill="none" id="Retirado-to-*end*" style="stroke:#181818;stroke-width:1;"/><polygon fill="#181818" points="221.51,578.8,225.51,569.8,221.51,573.8,217.51,569.8,221.51,578.8" style="stroke:#181818;stroke-width:1;"/></g><!--SRC=[XOun2W8n44Nxd6BgXRs0XM2XO65Zkomo95CCR2OXZdihg-riSp4ZQ20kQ3VCVu__Xsw4lj_2NYw9OhW6O-fPWviYRE0eR1aXH4feEIzYFjcRyoXAmfv9D1HXDrFATmH7IbRHeLb1JNLHJargWuyJ5JDyZJgJSYhlOXnOIW7Cx13oGtbgLlq3rsj-6gQcBtJenYS0]--></g></svg>