<svg xmlns="http://www.w3.org/2000/svg" xmlns:xlink="http://www.w3.org/1999/xlink" contentStyleType="text/css" height="480px" preserveAspectRatio="none" style="width:536px;height:480px;background:#FFFFFF;" version="1.1" viewBox="0 0 536 480" width="536px" zoomAndPan="magnify"><defs/><g><ellipse cx="234.6" cy="16" fill="#222222" rx="10" ry="10" style="stroke:#222222;stroke-width:1;"/><g id="En_planificacion"><rect fill="#F1F1F1" height="50" rx="12.5" ry="12.5" style="stroke:#181818;stroke-width:0.5;" width="132.957" x="168.12" y="87"/><line style="stroke:#181818;stroke-width:0.5;" x1="168.12" x2="301.077" y1="113.2969" y2="113.2969"/><text fill="#000000" font-family="sans-serif" font-size="14" lengthAdjust="spacing" textLength="112.957" x="178.12" y="104.9951">En_planificacion</text></g><g id="Activa"><rect fill="#F1F1F1" height="50" rx="12.5" ry="12.5" style="stroke:#181818;stroke-width:0.5;" width="63.5176" x="202.84" y="214"/><line style="stroke:#181818;stroke-width:0.5;" x1="202.84" x2="266.3576" y1="240.2969" y2="240.2969"/><text fill="#000000" font-family="sans-serif" font-size="14" lengthAdjust="spacing" textLength="43.5176" x="212.84" y="231.9951">Activa</text></g><g id="Modificada"><rect fill="#F1F1F1" height="50" rx="12.5" ry="12.5" style="stroke:#181818;stroke-width:0.5;" width="95.9814" x="84.61" y="341"/><line style="stroke:#181818;stroke-width:0.5;" x1="84.61" x2="180.5914" y1="367.2969" y2="367.2969"/><text fill="#000000" font-family="sans-serif" font-size="14" lengthAdjust="spacing" textLength="75.9814" x="94.61" y="358.9951">Modificada</text></g><g id="Eliminada"><rect fill="#F1F1F1" height="50" rx="12.5" ry="12.5" style="stroke:#181818;stroke-width:0.5;" width="89.0703" x="380.06" y="341"/><line style="stroke:#181818;stroke-width:0.5;" x1="380.06" x2="469.1303" y1="367.2969" y2="367.2969"/><text fill="#000000" font-family="sans-serif" font-size="14" lengthAdjust="spacing" textLength="69.0703" x="390.06" y="358.9951">Eliminada</text></g><ellipse cx="424.6" cy="463" fill="none" rx="11" ry="11" style="stroke:#222222;stroke-width:1;"/><ellipse cx="424.6" cy="463" fill="#222222" rx="6" ry="6" style="stroke:#222222;stroke-width:1;"/><!--link *start* to En_planificacion--><g id="link_*start*_En_planificacion"><path d="M234.6,26.36 C234.6,40.29 234.6,60.95 234.6,80.65 " fill="none" id="*start*-to-En_planificacion" style="stroke:#181818;stroke-width:1;"/><polygon fill="#181818" points="234.6,86.65,238.6,77.65,234.6,81.65,230.6,77.65,234.6,86.65" style="stroke:#181818;stroke-width:1;"/></g><!--link En_planificacion to Activa--><g id="link_En_planificacion_Activa"><path d="M234.6,137.4 C234.6,159.42 234.6,185.66 234.6,207.66 " fill="none" id="En_planificacion-to-Activa" style="stroke:#181818;stroke-width:1;"/><polygon fill="#181818" points="234.6,213.66,238.6,204.66,234.6,208.66,230.6,204.66,234.6,213.66" style="stroke:#181818;stroke-width:1;"/><text fill="#000000" font-family="sans-serif" font-size="13" lengthAdjust="spacing" textLength="96.4209" x="235.6" y="180.0669">Ruta aprobada</text></g><!--link Activa to Modificada--><g id="link_Activa_Modificada"><path d="M202.49,243.59 C149.63,250.23 48,266.33 26.6,294 C6,320.63 41.5187,338.8312 78.4187,350.7112 " fill="none" id="Activa-to-Modificada" style="stroke:#181818;stroke-width:1;"/><polygon fill="#181818" points="84.13,352.55,76.7889,345.9843,79.3706,351.0177,74.3372,353.5994,84.13,352.55" style="stroke:#181818;stroke-width:1;"/><text fill="#000000" font-family="sans-serif" font-size="13" lengthAdjust="spacing" textLength="163.3442" x="27.6" y="307.0669">Actualizacion de paradas</text></g><!--link Modificada to Activa--><g id="link_Modificada_Activa"><path d="M165.45,340.66 C175.84,332.01 186.88,321.73 195.6,311 C207.13,296.81 214.3922,284.1237 221.3222,269.7637 " fill="none" id="Modificada-to-Activa" style="stroke:#181818;stroke-width:1;"/><polygon fill="#181818" points="223.93,264.36,216.4159,270.727,221.7569,268.8631,223.6208,274.204,223.93,264.36" style="stroke:#181818;stroke-width:1;"/><text fill="#000000" font-family="sans-serif" font-size="13" lengthAdjust="spacing" textLength="148.2939" x="208.6" y="307.0669">Validacion completada</text></g><!--link Activa to Eliminada--><g id="link_Activa_Eliminada"><path d="M266.7,248.44 C294.68,256.86 335.38,271.77 365.6,294 C382.9,306.73 394.7758,320.6882 405.4858,335.7682 " fill="none" id="Activa-to-Eliminada" style="stroke:#181818;stroke-width:1;"/><polygon fill="#181818" points="408.96,340.66,407.0099,331.0061,406.0648,336.5835,400.4875,335.6384,408.96,340.66" style="stroke:#181818;stroke-width:1;"/><text fill="#000000" font-family="sans-serif" font-size="13" lengthAdjust="spacing" textLength="143.146" x="385.6" y="307.0669">Eliminada del sistema</text></g><!--link Eliminada to *end*--><g id="link_Eliminada_*end*"><path d="M424.6,391.46 C424.6,411.04 424.6,431.49 424.6,445.8 " fill="none" id="Eliminada-to-*end*" style="stroke:#181818;stroke-width:1;"/><polygon fill="#181818" points="424.6,451.8,428.6,442.8,424.6,446.8,420.6,442.8,424.6,451.8" style="stroke:#181818;stroke-width:1;"/></g><!--SRC=[NOwx2iCm34LtVuNcG7wWGw53nYuTkeHGRYqN17uHEntozRNZqaSsSNHqqDXDrFT76lmjMdXvY8QMu9NQaqqxwInFq84kImOXpk4EXdhZQfm3RoTShS8NM5bRW0r5p6MJr8_rbxqMcvkjWulMv5r-iEB4j_ftPcCfISh6eJp-mVLWxAON]--></g></svg>